<svg xmlns="http://www.w3.org/2000/svg" version="1.1" xmlns:xlink="http://www.w3.org/1999/xlink" xmlns:svgjs="http://svgjs.dev/svgjs" width="1500" height="530" viewBox="0 0 1500 530"><g transform="matrix(1,0,0,1,-0.9090909090909918,0.09708312593335222)"><svg viewBox="0 0 396 140" data-background-color="#279d71" preserveAspectRatio="xMidYMid meet" height="530" width="1500" xmlns="http://www.w3.org/2000/svg" xmlns:xlink="http://www.w3.org/1999/xlink"><g id="tight-bounds" transform="matrix(1,0,0,1,0.2400000000000091,-0.025644599303149107)"><svg viewBox="0 0 395.52 140.05128919860627" height="140.05128919860627" width="395.52"><g><svg viewBox="0 0 395.52 140.05128919860627" height="140.05128919860627" width="395.52"><g><svg viewBox="0 0 395.52 140.05128919860627" height="140.05128919860627" width="395.52"><g id="textblocktransform"><svg viewBox="0 0 395.52 140.05128919860627" height="140.05128919860627" width="395.52" id="textblock"><g><svg viewBox="0 0 395.52 140.05128919860627" height="140.05128919860627" width="395.52"><g transform="matrix(1,0,0,1,0,0)"><svg width="395.52" viewBox="3.5 -40.2 114.79 40.650000000000006" height="140.05128919860627" data-palette-color="#ffffff"><g class="wordmark-text-0" data-fill-palette-color="primary" id="text-0"><path d="M25.15 0L18.8-9.3 13.4-9.3 13.4 0 3.5 0 3.5-35 19.5-35Q24.25-35 27.75-33.43 31.25-31.85 33.15-28.93 35.05-26 35.05-22.05L35.05-22.05Q35.05-18.25 33.27-15.43 31.5-12.6 28.2-11L28.2-11 35.75 0 25.15 0ZM25.05-22.05Q25.05-24.5 23.5-25.85 21.95-27.2 18.9-27.2L18.9-27.2 13.4-27.2 13.4-16.95 18.9-16.95Q21.95-16.95 23.5-18.28 25.05-19.6 25.05-22.05L25.05-22.05ZM40.05 0L40.05-27.1 49.55-27.1 49.55 0 40.05 0ZM44.8-30.1Q42.2-30.1 40.6-31.55 39-33 39-35.15L39-35.15Q39-37.3 40.6-38.75 42.2-40.2 44.8-40.2L44.8-40.2Q47.4-40.2 49-38.83 50.6-37.45 50.6-35.3L50.6-35.3Q50.6-33.05 49-31.58 47.4-30.1 44.8-30.1L44.8-30.1ZM75-37.1L84.5-37.1 84.5 0 75.45 0 75.45-2.7Q72.8 0.45 67.5 0.45L67.5 0.45Q63.8 0.45 60.75-1.28 57.7-3 55.92-6.2 54.15-9.4 54.15-13.6L54.15-13.6Q54.15-17.8 55.92-20.98 57.7-24.15 60.75-25.85 63.8-27.55 67.5-27.55L67.5-27.55Q72.34-27.55 75-24.75L75-24.75 75-37.1ZM69.5-7.1Q71.95-7.1 73.55-8.83 75.15-10.55 75.15-13.6L75.15-13.6Q75.15-16.6 73.57-18.3 72-20 69.5-20L69.5-20Q67-20 65.4-18.3 63.8-16.6 63.8-13.6L63.8-13.6Q63.8-10.55 65.4-8.83 67-7.1 69.5-7.1L69.5-7.1ZM118.29-13.5Q118.29-13.4 118.14-11.15L118.14-11.15 98.44-11.15Q99.04-9.05 100.77-7.93 102.49-6.8 105.09-6.8L105.09-6.8Q107.04-6.8 108.47-7.35 109.89-7.9 111.34-9.15L111.34-9.15 116.34-3.95Q112.39 0.45 104.79 0.45L104.79 0.45Q100.04 0.45 96.44-1.35 92.84-3.15 90.87-6.35 88.89-9.55 88.89-13.6L88.89-13.6Q88.89-17.6 90.82-20.78 92.74-23.95 96.14-25.75 99.54-27.55 103.79-27.55L103.79-27.55Q107.84-27.55 111.14-25.88 114.44-24.2 116.37-21.03 118.29-17.85 118.29-13.5L118.29-13.5ZM103.84-20.8Q101.64-20.8 100.17-19.55 98.69-18.3 98.29-16.15L98.29-16.15 109.39-16.15Q108.99-18.3 107.52-19.55 106.04-20.8 103.84-20.8L103.84-20.8Z" fill="#ffffff" data-fill-palette-color="primary"></path></g></svg></g></svg></g></svg></g></svg></g></svg></g><defs></defs></svg><rect width="395.52" height="140.05128919860627" fill="none" stroke="none" visibility="hidden"></rect></g></svg></g></svg>